<svg width="229" height="18" viewBox="0 0 229 18" fill="none" xmlns="http://www.w3.org/2000/svg">
<rect x="8" y="2" width="2" height="14" rx="1" fill="#5795FD"/>
<rect x="2" y="10" width="2" height="14" rx="1" transform="rotate(-90 2 10)" fill="#5795FD"/>
<path opacity="0.87" d="M26.3835 16.642V12.8281H27.0866C27.3281 12.608 27.5554 12.2972 27.7685 11.896C27.9851 11.4911 28.168 10.9513 28.3171 10.2766C28.4698 9.59837 28.571 8.73722 28.6207 7.69318L28.8551 3.09091H35.3324V12.8281H36.5895V16.6207H35.3324V14H27.6406V16.642H26.3835ZM28.6634 12.8281H34.0753V4.26278H30.0483L29.8778 7.69318C29.8352 8.48864 29.7607 9.20952 29.6541 9.85582C29.5476 10.4986 29.4109 11.0685 29.244 11.5657C29.0771 12.0593 28.8835 12.4801 28.6634 12.8281ZM41.7391 14.1705C41.0004 14.1705 40.3524 13.9947 39.7948 13.6431C39.2409 13.2915 38.8076 12.7997 38.4951 12.1676C38.1862 11.5355 38.0317 10.7969 38.0317 9.9517C38.0317 9.09943 38.1862 8.35547 38.4951 7.71982C38.8076 7.08416 39.2409 6.59055 39.7948 6.23899C40.3524 5.88743 41.0004 5.71165 41.7391 5.71165C42.4777 5.71165 43.124 5.88743 43.678 6.23899C44.2355 6.59055 44.6688 7.08416 44.9777 7.71982C45.2902 8.35547 45.4465 9.09943 45.4465 9.9517C45.4465 10.7969 45.2902 11.5355 44.9777 12.1676C44.6688 12.7997 44.2355 13.2915 43.678 13.6431C43.124 13.9947 42.4777 14.1705 41.7391 14.1705ZM41.7391 13.0412C42.3002 13.0412 42.7618 12.8974 43.124 12.6097C43.4862 12.3221 43.7544 11.9439 43.9284 11.4751C44.1024 11.0064 44.1894 10.4986 44.1894 9.9517C44.1894 9.40483 44.1024 8.89524 43.9284 8.42294C43.7544 7.95064 43.4862 7.56889 43.124 7.2777C42.7618 6.98651 42.3002 6.84091 41.7391 6.84091C41.178 6.84091 40.7164 6.98651 40.3541 7.2777C39.9919 7.56889 39.7238 7.95064 39.5498 8.42294C39.3758 8.89524 39.2888 9.40483 39.2888 9.9517C39.2888 10.4986 39.3758 11.0064 39.5498 11.4751C39.7238 11.9439 39.9919 12.3221 40.3541 12.6097C40.7164 12.8974 41.178 13.0412 41.7391 13.0412ZM53.4379 2.75L54.0771 3.51704C53.8285 3.75852 53.5408 3.9272 53.2141 4.02308C52.8874 4.11896 52.5181 4.17756 52.1062 4.19886C51.6942 4.22017 51.2362 4.24148 50.7319 4.26278C50.1637 4.28409 49.6932 4.42259 49.3203 4.67827C48.9474 4.93395 48.6598 5.30327 48.4574 5.78622C48.255 6.26918 48.1254 6.86222 48.0685 7.56534H48.1751C48.4521 7.05398 48.8356 6.67756 49.3256 6.43608C49.8157 6.1946 50.3413 6.07386 50.9023 6.07386C51.5415 6.07386 52.1168 6.22301 52.6282 6.52131C53.1396 6.8196 53.5444 7.26172 53.8427 7.84766C54.141 8.43359 54.2901 9.15625 54.2901 10.0156C54.2901 10.8714 54.1374 11.6101 53.832 12.2315C53.5302 12.853 53.1058 13.3324 52.5589 13.6697C52.0156 14.0036 51.3782 14.1705 50.6467 14.1705C49.9151 14.1705 49.2741 13.9982 48.7237 13.6538C48.1733 13.3058 47.7454 12.7908 47.44 12.109C47.1346 11.4237 46.9819 10.5767 46.9819 9.56818V8.6946C46.9819 6.87287 47.2908 5.49148 47.9087 4.55043C48.5302 3.60937 49.4641 3.12287 50.7106 3.09091C51.1509 3.0767 51.5433 3.07315 51.8878 3.08026C52.2322 3.08736 52.5323 3.07138 52.788 3.03232C53.0437 2.99325 53.2603 2.89915 53.4379 2.75ZM50.6467 13.0412C51.1403 13.0412 51.5646 12.9169 51.9197 12.6683C52.2784 12.4197 52.5536 12.07 52.7454 11.619C52.9371 11.1644 53.033 10.63 53.033 10.0156C53.033 9.41903 52.9354 8.91122 52.7401 8.49219C52.5483 8.07315 52.2731 7.75355 51.9144 7.53338C51.5558 7.31321 51.1261 7.20312 50.6254 7.20312C50.2596 7.20312 49.9311 7.26527 49.6399 7.38956C49.3487 7.51385 49.1001 7.69673 48.8942 7.93821C48.6882 8.17969 48.5284 8.47443 48.4148 8.82244C48.3047 9.17045 48.2461 9.56818 48.239 10.0156C48.239 10.9318 48.4538 11.6651 48.8835 12.2156C49.3132 12.766 49.9009 13.0412 50.6467 13.0412ZM58.6207 14.1918C58.1023 14.1918 57.6317 14.0941 57.2092 13.8988C56.7866 13.6999 56.451 13.4141 56.2024 13.0412C55.9538 12.6648 55.8295 12.2102 55.8295 11.6776C55.8295 11.2088 55.9219 10.8288 56.1065 10.5376C56.2912 10.2429 56.538 10.0121 56.8469 9.84517C57.1559 9.67827 57.4968 9.55398 57.8697 9.4723C58.2461 9.38707 58.6243 9.3196 59.0043 9.26989C59.5014 9.20597 59.9045 9.15803 60.2134 9.12607C60.5259 9.09055 60.7532 9.03196 60.8952 8.95028C61.0408 8.86861 61.1136 8.72656 61.1136 8.52415V8.48153C61.1136 7.95597 60.9698 7.54759 60.6822 7.25639C60.3981 6.9652 59.9666 6.8196 59.3878 6.8196C58.7876 6.8196 58.3171 6.95099 57.9762 7.21378C57.6353 7.47656 57.3956 7.7571 57.2571 8.0554L56.0639 7.62926C56.277 7.1321 56.5611 6.74503 56.9162 6.46804C57.2749 6.1875 57.6655 5.99219 58.0881 5.8821C58.5142 5.76847 58.9332 5.71165 59.3452 5.71165C59.608 5.71165 59.9098 5.74361 60.2507 5.80753C60.5952 5.8679 60.9272 5.99396 61.2468 6.18572C61.57 6.37749 61.8381 6.6669 62.0511 7.05398C62.2642 7.44105 62.3707 7.95952 62.3707 8.60938V14H61.1136V12.892H61.0497C60.9645 13.0696 60.8224 13.2596 60.6236 13.462C60.4247 13.6644 60.1602 13.8366 59.8299 13.9787C59.4996 14.1207 59.0966 14.1918 58.6207 14.1918ZM58.8125 13.0625C59.3097 13.0625 59.7287 12.9648 60.0696 12.7695C60.4141 12.5742 60.6733 12.3221 60.8473 12.0131C61.0249 11.7042 61.1136 11.3793 61.1136 11.0384V9.88778C61.0604 9.9517 60.9432 10.0103 60.7621 10.0636C60.5845 10.1133 60.3786 10.1577 60.1442 10.1967C59.9134 10.2322 59.6879 10.2642 59.4677 10.2926C59.2511 10.3175 59.0753 10.3388 58.9403 10.3565C58.6136 10.3991 58.3082 10.4684 58.0241 10.5643C57.7436 10.6566 57.5163 10.7969 57.3423 10.9851C57.1719 11.1697 57.0866 11.4219 57.0866 11.7415C57.0866 12.1783 57.2482 12.5085 57.5714 12.7322C57.8981 12.9524 58.3118 13.0625 58.8125 13.0625ZM64.6652 14V5.81818H68.0104C68.8911 5.81818 69.5906 6.01705 70.1091 6.41477C70.6276 6.8125 70.8868 7.33807 70.8868 7.99148C70.8868 8.48864 70.7394 8.87393 70.4447 9.14737C70.1499 9.41726 69.7718 9.60014 69.3101 9.69602C69.6119 9.73864 69.9049 9.84517 70.189 10.0156C70.4767 10.1861 70.7146 10.4205 70.9028 10.7188C71.091 11.0135 71.1851 11.3757 71.1851 11.8054C71.1851 12.2244 71.0786 12.5991 70.8655 12.9293C70.6524 13.2596 70.347 13.5206 69.9493 13.7124C69.5516 13.9041 69.0757 14 68.5218 14H64.6652ZM65.8584 12.8494H68.5218C68.955 12.8494 69.2941 12.7464 69.5392 12.5405C69.7842 12.3345 69.9067 12.054 69.9067 11.6989C69.9067 11.2763 69.7842 10.9442 69.5392 10.7028C69.2941 10.4577 68.955 10.3352 68.5218 10.3352H65.8584V12.8494ZM65.8584 9.24858H68.0104C68.3477 9.24858 68.6372 9.20241 68.8786 9.11008C69.1201 9.0142 69.3048 8.87926 69.4326 8.70526C69.564 8.5277 69.6297 8.31818 69.6297 8.0767C69.6297 7.73224 69.4859 7.46236 69.1982 7.26705C68.9106 7.06818 68.5146 6.96875 68.0104 6.96875H65.8584V9.24858ZM74.3452 12.1463L78.2869 5.81818H79.7358V14H78.4787V7.67188L74.5582 14H73.0881V5.81818H74.3452V12.1463ZM80.925 6.99006V5.81818H87.5727V6.99006H84.8881V14H83.6309V6.99006H80.925ZM90.4931 8.77983H92.8368C93.7956 8.77983 94.5289 9.02308 95.0368 9.50959C95.5446 9.99609 95.7985 10.6122 95.7985 11.358C95.7985 11.848 95.6848 12.2937 95.4576 12.695C95.2303 13.0927 94.8965 13.4105 94.4561 13.6484C94.0158 13.8828 93.476 14 92.8368 14H89.4064V5.81818H90.6635V12.8281H92.8368C93.334 12.8281 93.7424 12.6967 94.062 12.4339C94.3816 12.1712 94.5414 11.8338 94.5414 11.4219C94.5414 10.9886 94.3816 10.6353 94.062 10.3619C93.7424 10.0884 93.334 9.9517 92.8368 9.9517H90.4931V8.77983ZM105.255 14.1705C104.488 14.1705 103.827 13.9893 103.273 13.6271C102.719 13.2649 102.293 12.766 101.995 12.1303C101.696 11.4947 101.547 10.7685 101.547 9.9517C101.547 9.12074 101.7 8.38743 102.005 7.75178C102.314 7.11257 102.744 6.61364 103.294 6.25497C103.848 5.89276 104.495 5.71165 105.233 5.71165C105.809 5.71165 106.327 5.81818 106.789 6.03125C107.25 6.24432 107.629 6.54261 107.923 6.92614C108.218 7.30966 108.401 7.7571 108.472 8.26847H107.215C107.119 7.8956 106.906 7.56534 106.576 7.2777C106.249 6.98651 105.809 6.84091 105.255 6.84091C104.765 6.84091 104.335 6.96875 103.966 7.22443C103.6 7.47656 103.314 7.83345 103.108 8.2951C102.906 8.7532 102.804 9.29119 102.804 9.90909C102.804 10.5412 102.904 11.0916 103.103 11.5604C103.305 12.0291 103.589 12.3931 103.955 12.6523C104.324 12.9116 104.758 13.0412 105.255 13.0412C105.581 13.0412 105.878 12.9844 106.144 12.8707C106.411 12.7571 106.636 12.5938 106.821 12.3807C107.005 12.1676 107.137 11.9119 107.215 11.6136H108.472C108.401 12.0966 108.225 12.5316 107.945 12.9187C107.668 13.3022 107.3 13.6076 106.842 13.8349C106.388 14.0586 105.858 14.1705 105.255 14.1705ZM113.634 14.1705C112.895 14.1705 112.247 13.9947 111.689 13.6431C111.135 13.2915 110.702 12.7997 110.39 12.1676C110.081 11.5355 109.926 10.7969 109.926 9.9517C109.926 9.09943 110.081 8.35547 110.39 7.71982C110.702 7.08416 111.135 6.59055 111.689 6.23899C112.247 5.88743 112.895 5.71165 113.634 5.71165C114.372 5.71165 115.019 5.88743 115.573 6.23899C116.13 6.59055 116.563 7.08416 116.872 7.71982C117.185 8.35547 117.341 9.09943 117.341 9.9517C117.341 10.7969 117.185 11.5355 116.872 12.1676C116.563 12.7997 116.13 13.2915 115.573 13.6431C115.019 13.9947 114.372 14.1705 113.634 14.1705ZM113.634 13.0412C114.195 13.0412 114.656 12.8974 115.019 12.6097C115.381 12.3221 115.649 11.9439 115.823 11.4751C115.997 11.0064 116.084 10.4986 116.084 9.9517C116.084 9.40483 115.997 8.89524 115.823 8.42294C115.649 7.95064 115.381 7.56889 115.019 7.2777C114.656 6.98651 114.195 6.84091 113.634 6.84091C113.073 6.84091 112.611 6.98651 112.249 7.2777C111.886 7.56889 111.618 7.95064 111.444 8.42294C111.27 8.89524 111.183 9.40483 111.183 9.9517C111.183 10.4986 111.27 11.0064 111.444 11.4751C111.618 11.9439 111.886 12.3221 112.249 12.6097C112.611 12.8974 113.073 13.0412 113.634 13.0412ZM125.695 5.81818V12.8281H126.845V16.642H125.588V14H119.26V5.81818H120.517V12.8281H124.438V5.81818H125.695ZM130.039 12.1463L133.98 5.81818H135.429V14H134.172V7.67188L130.252 14H128.781V5.81818H130.039V12.1463ZM140.139 14.1918C139.621 14.1918 139.15 14.0941 138.728 13.8988C138.305 13.6999 137.97 13.4141 137.721 13.0412C137.472 12.6648 137.348 12.2102 137.348 11.6776C137.348 11.2088 137.44 10.8288 137.625 10.5376C137.81 10.2429 138.057 10.0121 138.366 9.84517C138.674 9.67827 139.015 9.55398 139.388 9.4723C139.765 9.38707 140.143 9.3196 140.523 9.26989C141.02 9.20597 141.423 9.15803 141.732 9.12607C142.044 9.09055 142.272 9.03196 142.414 8.95028C142.559 8.86861 142.632 8.72656 142.632 8.52415V8.48153C142.632 7.95597 142.488 7.54759 142.201 7.25639C141.917 6.9652 141.485 6.8196 140.906 6.8196C140.306 6.8196 139.836 6.95099 139.495 7.21378C139.154 7.47656 138.914 7.7571 138.776 8.0554L137.582 7.62926C137.796 7.1321 138.08 6.74503 138.435 6.46804C138.793 6.1875 139.184 5.99219 139.607 5.8821C140.033 5.76847 140.452 5.71165 140.864 5.71165C141.127 5.71165 141.428 5.74361 141.769 5.80753C142.114 5.8679 142.446 5.99396 142.765 6.18572C143.089 6.37749 143.357 6.6669 143.57 7.05398C143.783 7.44105 143.889 7.95952 143.889 8.60938V14H142.632V12.892H142.568C142.483 13.0696 142.341 13.2596 142.142 13.462C141.943 13.6644 141.679 13.8366 141.348 13.9787C141.018 14.1207 140.615 14.1918 140.139 14.1918ZM140.331 13.0625C140.828 13.0625 141.247 12.9648 141.588 12.7695C141.933 12.5742 142.192 12.3221 142.366 12.0131C142.543 11.7042 142.632 11.3793 142.632 11.0384V9.88778C142.579 9.9517 142.462 10.0103 142.281 10.0636C142.103 10.1133 141.897 10.1577 141.663 10.1967C141.432 10.2322 141.206 10.2642 140.986 10.2926C140.77 10.3175 140.594 10.3388 140.459 10.3565C140.132 10.3991 139.827 10.4684 139.543 10.5643C139.262 10.6566 139.035 10.7969 138.861 10.9851C138.69 11.1697 138.605 11.4219 138.605 11.7415C138.605 12.1783 138.767 12.5085 139.09 12.7322C139.417 12.9524 139.83 13.0625 140.331 13.0625ZM145.459 14V12.8281H145.758C146.003 12.8281 146.207 12.7802 146.37 12.6843C146.534 12.5849 146.665 12.4126 146.764 12.1676C146.867 11.919 146.945 11.5746 146.999 11.1342C147.056 10.6903 147.096 10.1257 147.121 9.44034L147.27 5.81818H152.725V14H151.468V6.99006H148.464L148.336 9.90909C148.307 10.5803 148.247 11.1715 148.155 11.6829C148.066 12.1907 147.929 12.6168 147.744 12.9613C147.563 13.3058 147.322 13.565 147.02 13.739C146.718 13.913 146.34 14 145.885 14H145.459ZM156.118 8.77983H158.462C159.421 8.77983 160.154 9.02308 160.662 9.50959C161.17 9.99609 161.423 10.6122 161.423 11.358C161.423 11.848 161.31 12.2937 161.083 12.695C160.855 13.0927 160.521 13.4105 160.081 13.6484C159.641 13.8828 159.101 14 158.462 14H155.031V5.81818H156.289V12.8281H158.462C158.959 12.8281 159.367 12.6967 159.687 12.4339C160.007 12.1712 160.166 11.8338 160.166 11.4219C160.166 10.9886 160.007 10.6353 159.687 10.3619C159.367 10.0884 158.959 9.9517 158.462 9.9517H156.118V8.77983ZM168.813 9.33381V10.5057H164.296V9.33381H168.813ZM164.594 5.81818V14H163.337V5.81818H164.594ZM169.772 5.81818V14H168.515V5.81818H169.772ZM172.584 17.0682C172.371 17.0682 172.181 17.0504 172.014 17.0149C171.847 16.983 171.732 16.951 171.668 16.919L171.988 15.8111C172.293 15.8892 172.563 15.9176 172.797 15.8963C173.032 15.875 173.239 15.7702 173.421 15.582C173.605 15.3974 173.774 15.0973 173.927 14.6818L174.161 14.0426L171.135 5.81818H172.499L174.758 12.3381H174.843L177.101 5.81818H178.465L174.992 15.1932C174.836 15.6158 174.642 15.9656 174.411 16.2425C174.18 16.5231 173.912 16.7308 173.607 16.8658C173.305 17.0007 172.964 17.0682 172.584 17.0682ZM184.045 9.39773V10.5696H179.719V9.39773H184.045ZM180.785 5.81818V14H179.528V5.81818H180.785ZM186.559 14.1705C185.82 14.1705 185.172 13.9947 184.615 13.6431C184.061 13.2915 183.627 12.7997 183.315 12.1676C183.006 11.5355 182.851 10.7969 182.851 9.9517C182.851 9.09943 183.006 8.35547 183.315 7.71982C183.627 7.08416 184.061 6.59055 184.615 6.23899C185.172 5.88743 185.82 5.71165 186.559 5.71165C187.297 5.71165 187.944 5.88743 188.498 6.23899C189.055 6.59055 189.489 7.08416 189.797 7.71982C190.11 8.35547 190.266 9.09943 190.266 9.9517C190.266 10.7969 190.11 11.5355 189.797 12.1676C189.489 12.7997 189.055 13.2915 188.498 13.6431C187.944 13.9947 187.297 14.1705 186.559 14.1705ZM186.559 13.0412C187.12 13.0412 187.582 12.8974 187.944 12.6097C188.306 12.3221 188.574 11.9439 188.748 11.4751C188.922 11.0064 189.009 10.4986 189.009 9.9517C189.009 9.40483 188.922 8.89524 188.748 8.42294C188.574 7.95064 188.306 7.56889 187.944 7.2777C187.582 6.98651 187.12 6.84091 186.559 6.84091C185.998 6.84091 185.536 6.98651 185.174 7.2777C184.812 7.56889 184.544 7.95064 184.37 8.42294C184.196 8.89524 184.109 9.40483 184.109 9.9517C184.109 10.4986 184.196 11.0064 184.37 11.4751C184.544 11.9439 184.812 12.3221 185.174 12.6097C185.536 12.8974 185.998 13.0412 186.559 13.0412ZM199.854 14.1705C199.087 14.1705 198.427 13.9893 197.873 13.6271C197.319 13.2649 196.893 12.766 196.594 12.1303C196.296 11.4947 196.147 10.7685 196.147 9.9517C196.147 9.12074 196.3 8.38743 196.605 7.75178C196.914 7.11257 197.344 6.61364 197.894 6.25497C198.448 5.89276 199.094 5.71165 199.833 5.71165C200.408 5.71165 200.927 5.81818 201.388 6.03125C201.85 6.24432 202.228 6.54261 202.523 6.92614C202.818 7.30966 203.001 7.7571 203.072 8.26847H201.815C201.719 7.8956 201.506 7.56534 201.175 7.2777C200.849 6.98651 200.408 6.84091 199.854 6.84091C199.364 6.84091 198.935 6.96875 198.565 7.22443C198.199 7.47656 197.914 7.83345 197.708 8.2951C197.505 8.7532 197.404 9.29119 197.404 9.90909C197.404 10.5412 197.503 11.0916 197.702 11.5604C197.905 12.0291 198.189 12.3931 198.555 12.6523C198.924 12.9116 199.357 13.0412 199.854 13.0412C200.181 13.0412 200.478 12.9844 200.744 12.8707C201.01 12.7571 201.236 12.5938 201.42 12.3807C201.605 12.1676 201.736 11.9119 201.815 11.6136H203.072C203.001 12.0966 202.825 12.5316 202.544 12.9187C202.267 13.3022 201.9 13.6076 201.442 13.8349C200.987 14.0586 200.458 14.1705 199.854 14.1705ZM208.34 14.1705C207.551 14.1705 206.871 13.9964 206.3 13.6484C205.731 13.2969 205.293 12.8068 204.984 12.1783C204.679 11.5462 204.526 10.8111 204.526 9.97301C204.526 9.13494 204.679 8.39631 204.984 7.7571C205.293 7.11435 205.723 6.61364 206.273 6.25497C206.827 5.89276 207.473 5.71165 208.212 5.71165C208.638 5.71165 209.059 5.78267 209.474 5.92472C209.89 6.06676 210.268 6.29759 210.609 6.61719C210.95 6.93324 211.222 7.35227 211.424 7.87429C211.626 8.39631 211.728 9.03906 211.728 9.80256V10.3352H205.421V9.24858H210.449C210.449 8.78693 210.357 8.375 210.172 8.01278C209.991 7.65057 209.732 7.3647 209.394 7.15518C209.061 6.94567 208.666 6.84091 208.212 6.84091C207.711 6.84091 207.278 6.9652 206.912 7.21378C206.55 7.45881 206.271 7.77841 206.076 8.17258C205.881 8.56676 205.783 8.98935 205.783 9.44034V10.1648C205.783 10.7827 205.889 11.3065 206.103 11.7362C206.319 12.1623 206.619 12.4872 207.003 12.7109C207.386 12.9311 207.832 13.0412 208.34 13.0412C208.67 13.0412 208.968 12.995 209.235 12.9027C209.505 12.8068 209.737 12.6648 209.932 12.4766C210.128 12.2848 210.279 12.0469 210.385 11.7628L211.6 12.1037C211.472 12.5156 211.257 12.8778 210.955 13.1903C210.653 13.4993 210.28 13.7408 209.837 13.9148C209.393 14.0852 208.894 14.1705 208.34 14.1705ZM212.878 6.99006V5.81818H219.526V6.99006H216.841V14H215.584V6.99006H212.878ZM222.446 8.77983H224.79C225.749 8.77983 226.482 9.02308 226.99 9.50959C227.498 9.99609 227.752 10.6122 227.752 11.358C227.752 11.848 227.638 12.2937 227.411 12.695C227.183 13.0927 226.85 13.4105 226.409 13.6484C225.969 13.8828 225.429 14 224.79 14H221.36V5.81818H222.617V12.8281H224.79C225.287 12.8281 225.695 12.6967 226.015 12.4339C226.335 12.1712 226.494 11.8338 226.494 11.4219C226.494 10.9886 226.335 10.6353 226.015 10.3619C225.695 10.0884 225.287 9.9517 224.79 9.9517H222.446V8.77983Z" fill="#3E85FD"/>
</svg>
