<svg width="14" height="9" viewBox="0 0 14 9" fill="none" xmlns="http://www.w3.org/2000/svg">
<path d="M13.4193 1.92664C13.5813 1.76814 13.6715 1.55688 13.6715 1.31356C13.6715 0.822862 13.2909 0.439527 12.8015 0.439527C12.5555 0.439527 12.3286 0.531777 12.1695 0.703227L6.62798 6.37473L7.36494 6.37473L1.82886 0.703228C1.66493 0.530428 1.43665 0.439528 1.19815 0.439528C0.710159 0.439528 0.328236 0.822863 0.328236 1.31356C0.328236 1.55823 0.41708 1.7695 0.58178 1.92664L6.3178 7.79689C6.50822 7.99833 6.73997 8.10154 6.99608 8.10425C7.25705 8.10425 7.48396 7.99968 7.68058 7.79689L13.4193 1.92664Z" fill="#1B1B1B"/>
</svg>
