<svg width="16" height="16" viewBox="0 0 16 16" fill="none" xmlns="http://www.w3.org/2000/svg">
<path d="M2.75704 15.0053H13.1223C14.7484 15.0053 15.5874 14.1662 15.5874 12.5587V3.39017C15.5874 1.78133 14.7484 0.943604 13.1223 0.943604H2.75704C1.13102 0.943604 0.285767 1.77515 0.285767 3.39017V12.5587C0.285767 14.1724 1.13102 15.0053 2.75704 15.0053ZM2.73625 13.5294C2.10373 13.5294 1.76172 13.2051 1.76172 12.5425V5.58212C1.76172 4.92564 2.10373 4.59658 2.73625 4.59658H13.1308C13.7633 4.59658 14.1115 4.92564 14.1115 5.58212V12.5425C14.1115 13.2051 13.7633 13.5294 13.1308 13.5294H2.73625ZM6.49033 7.20754H6.93484C7.20252 7.20754 7.2895 7.12813 7.2895 6.8604V6.41592C7.2895 6.14818 7.20252 6.0626 6.93484 6.0626H6.49033C6.2226 6.0626 6.12948 6.14818 6.12948 6.41592V6.8604C6.12948 7.12813 6.2226 7.20754 6.49033 7.20754ZM8.95212 7.20754H9.3966C9.66435 7.20754 9.75885 7.12813 9.75885 6.8604V6.41592C9.75885 6.14818 9.66435 6.0626 9.3966 6.0626H8.95212C8.68437 6.0626 8.59129 6.14818 8.59129 6.41592V6.8604C8.59129 7.12813 8.68437 7.20754 8.95212 7.20754ZM11.4153 7.20754H11.8598C12.1275 7.20754 12.2206 7.12813 12.2206 6.8604V6.41592C12.2206 6.14818 12.1275 6.0626 11.8598 6.0626H11.4153C11.1475 6.0626 11.0606 6.14818 11.0606 6.41592V6.8604C11.0606 7.12813 11.1475 7.20754 11.4153 7.20754ZM4.02855 9.63167H4.46548C4.74076 9.63167 4.82769 9.55227 4.82769 9.28452V8.84005C4.82769 8.5723 4.74076 8.49291 4.46548 8.49291H4.02855C3.75327 8.49291 3.66633 8.5723 3.66633 8.84005V9.28452C3.66633 9.55227 3.75327 9.63167 4.02855 9.63167ZM6.49033 9.63167H6.93484C7.20252 9.63167 7.2895 9.55227 7.2895 9.28452V8.84005C7.2895 8.5723 7.20252 8.49291 6.93484 8.49291H6.49033C6.2226 8.49291 6.12948 8.5723 6.12948 8.84005V9.28452C6.12948 9.55227 6.2226 9.63167 6.49033 9.63167ZM8.95212 9.63167H9.3966C9.66435 9.63167 9.75885 9.55227 9.75885 9.28452V8.84005C9.75885 8.5723 9.66435 8.49291 9.3966 8.49291H8.95212C8.68437 8.49291 8.59129 8.5723 8.59129 8.84005V9.28452C8.59129 9.55227 8.68437 9.63167 8.95212 9.63167ZM11.4153 9.63167H11.8598C12.1275 9.63167 12.2206 9.55227 12.2206 9.28452V8.84005C12.2206 8.5723 12.1275 8.49291 11.8598 8.49291H11.4153C11.1475 8.49291 11.0606 8.5723 11.0606 8.84005V9.28452C11.0606 9.55227 11.1475 9.63167 11.4153 9.63167ZM4.02855 12.062H4.46548C4.74076 12.062 4.82769 11.9778 4.82769 11.7087V11.2656C4.82769 10.9965 4.74076 10.9184 4.46548 10.9184H4.02855C3.75327 10.9184 3.66633 10.9965 3.66633 11.2656V11.7087C3.66633 11.9778 3.75327 12.062 4.02855 12.062ZM6.49033 12.062H6.93484C7.20252 12.062 7.2895 11.9778 7.2895 11.7087V11.2656C7.2895 10.9965 7.20252 10.9184 6.93484 10.9184H6.49033C6.2226 10.9184 6.12948 10.9965 6.12948 11.2656V11.7087C6.12948 11.9778 6.2226 12.062 6.49033 12.062ZM8.95212 12.062H9.3966C9.66435 12.062 9.75885 11.9778 9.75885 11.7087V11.2656C9.75885 10.9965 9.66435 10.9184 9.3966 10.9184H8.95212C8.68437 10.9184 8.59129 10.9965 8.59129 11.2656V11.7087C8.59129 11.9778 8.68437 12.062 8.95212 12.062Z" fill="#1B1B1B"/>
</svg>
