<svg width="10" height="16" viewBox="0 0 10 16" fill="none" xmlns="http://www.w3.org/2000/svg">
<path d="M6.76777 1.54473C6.29893 1.07589 5.66304 0.8125 5 0.8125C4.33696 0.8125 3.70107 1.07589 3.23223 1.54473C2.76339 2.01357 2.5 2.64946 2.5 3.3125C2.5 3.97554 2.76339 4.61143 3.23223 5.08027C3.70107 5.54911 4.33696 5.8125 5 5.8125C5.66304 5.8125 6.29893 5.54911 6.76777 5.08027C7.23661 4.61143 7.5 3.97554 7.5 3.3125C7.5 2.64946 7.23661 2.01357 6.76777 1.54473Z" fill="#B8B8B8"/>
<path d="M0.625 15.1875H3.125H6.875H9.375L7.3875 8.825C7.075 7.8 6.125 7.0625 5 7.0625C3.875 7.0625 2.925 7.8 2.6125 8.825L0.625 15.1875Z" fill="#B8B8B8"/>
</svg>
