<svg width="10" height="16" viewBox="0 0 10 16" fill="none" xmlns="http://www.w3.org/2000/svg">
<path d="M5 0.8125C5.66304 0.8125 6.29893 1.07589 6.76777 1.54473C7.23661 2.01357 7.5 2.64946 7.5 3.3125C7.5 3.97554 7.23661 4.61143 6.76777 5.08027C6.29893 5.54911 5.66304 5.8125 5 5.8125C4.33696 5.8125 3.70107 5.54911 3.23223 5.08027C2.76339 4.61143 2.5 3.97554 2.5 3.3125C2.5 2.64946 2.76339 2.01357 3.23223 1.54473C3.70107 1.07589 4.33696 0.8125 5 0.8125ZM3.125 7.0625H6.875C7.53804 7.0625 8.17393 7.32589 8.64277 7.79473C9.11161 8.26357 9.375 8.89946 9.375 9.5625V15.1875H7.5H2.5H0.625V9.5625C0.625 8.89946 0.888392 8.26357 1.35723 7.79473C1.82607 7.32589 2.46196 7.0625 3.125 7.0625Z" fill="#B8B8B8"/>
</svg>
